<?xml version="1.0" standalone="no"?><!DOCTYPE svg PUBLIC "-//W3C//DTD SVG 1.1//EN" "http://www.w3.org/Graphics/SVG/1.1/DTD/svg11.dtd"><svg t="1514089432450" class="icon" style="" viewBox="0 0 1024 1024" version="1.1" xmlns="http://www.w3.org/2000/svg" p-id="1879" xmlns:xlink="http://www.w3.org/1999/xlink" width="200" height="200"><defs><style type="text/css"></style></defs><path d="M880.885 867.463828l-731.019249 0c-21.98778 0-42.549072-8.867972-57.893548-24.968671l36.263925-36.077683c5.469572 5.265934 12.543687 8.165983 19.919678 8.165983l731.019249 0c16.337083 0 29.628808-14.062274 29.628808-31.346939L908.803863 223.036749c0-8.387018-3.102664-16.272615-8.735965-22.204721l36.32123-36.020378c16.07307 15.521508 25.292036 37.369096 25.292036 59.939137l0 560.198745C961.680141 830.448796 925.435659 867.463828 880.885 867.463828z" fill="#1296db" p-id="1880"></path><path d="M92.747869 843.274916c-16.135492-15.533788-25.38925-37.416168-25.38925-60.038398L67.358619 223.036749c0-24.615631 10.640338-47.758724 29.191856-63.49615 14.458293-12.263301 32.785707-19.017122 51.603285-19.017122l731.019249 0c22.042016 0 42.638099 8.905834 57.993832 25.075095l-36.32123 36.019355c-0.720408-0.695848-1.471514-1.352811-2.246157-1.966795L515.375375 582.876234l-383.238404-383.238404c-0.261966 0.207731-0.520863 0.419556-0.775666 0.636496-7.071046 5.997598-11.126408 14.918781-11.126408 24.477484l0 560.198745c0 8.407484 3.115967 16.308431 8.774851 22.245653L92.747869 843.274916zM196.54591 191.688787L515.375375 510.517229l318.828442-318.828442L196.54591 191.688787z" fill="#1296db" p-id="1881"></path><path d="M879.174032 865.748766L148.154783 865.748766c-20.677948 0-40.355103-7.981788-55.407937-22.473851l-0.775666-0.780783c-14.768355-15.495926-22.901593-35.931351-22.901593-57.543577l0-560.198745c0-24.615631 10.640338-47.758724 29.192879-63.49615 9.785877-8.30106 21.502733-14.187117 33.883715-17.019629l13.791098-3.154853L515.375375 510.517229l369.423771-369.423771 13.791098 3.15383c14.144138 3.234671 27.214828 10.346649 37.798884 20.566408l0.779759 0.785899c14.702863 15.481599 22.800285 35.881209 22.800285 57.438177l0 560.199769C959.96815 828.733735 923.723667 865.748766 879.174032 865.748766zM128.634194 806.79405c5.41329 5.027503 12.322653 7.789407 19.520589 7.789407l731.019249 0c16.338107 0 29.628808-14.062274 29.628808-31.346939L908.80284 223.036749c0-8.196683-2.963495-15.915481-8.357342-21.798469-0.596588-0.555655-1.213641-1.085728-1.846044-1.586125L515.375375 582.876234l-383.238404-383.238404c-0.261966 0.207731-0.51984 0.419556-0.775666 0.635473-7.071046 5.997598-11.126408 14.919804-11.126408 24.478508l0 560.198745C120.23592 793.168728 123.213741 800.903899 128.634194 806.79405z" fill="#1296db" p-id="1882"></path></svg>