<?xml version="1.0" standalone="no"?><!DOCTYPE svg PUBLIC "-//W3C//DTD SVG 1.1//EN" "http://www.w3.org/Graphics/SVG/1.1/DTD/svg11.dtd"><svg t="1513949475119" class="icon" style="" viewBox="0 0 1024 1024" version="1.1" xmlns="http://www.w3.org/2000/svg" p-id="2836" xmlns:xlink="http://www.w3.org/1999/xlink" width="200" height="200"><defs><style type="text/css"></style></defs><path d="M512 511.700234m-508.502732 0a508.502732 508.502732 0 1 0 1017.005464 0 508.502732 508.502732 0 1 0-1017.005464 0Z" fill="#D6D4D4" p-id="2837"></path><path d="M806.370023 738.922717H213.133489c-31.075722 0-56.355972-25.180328-56.355971-56.355972V371.309914c0-31.075722 25.180328-56.355972 56.355971-56.355972h593.236534c31.075722 0 56.355972 25.180328 56.355972 56.355972v311.356753c-0.099922 31.075722-25.28025 56.25605-56.355972 56.25605z" fill="#F2F2F2" p-id="2838"></path><path d="M610.323185 427.166276H249.205308c-6.594848 0-11.990632-5.395785-11.990632-11.990632v-19.684621c0-6.594848 5.395785-11.990632 11.990632-11.990633h361.217799c6.594848 0 11.990632 5.395785 11.990632 11.990633v19.684621c-0.099922 6.594848-5.495706 11.990632-12.090554 11.990632zM513.298985 518.494926H249.405152c-5.69555 0-10.291959-4.596409-10.291959-10.29196v-23.081967c0-5.69555 4.596409-10.291959 10.291959-10.291959h263.893833c5.69555 0 10.291959 4.596409 10.29196 10.291959v23.081967c0 5.69555-4.596409 10.291959-10.29196 10.29196zM410.379391 603.628415H247.806401c-4.496487 0-8.193599-3.697112-8.193599-8.193598v-27.278689c0-4.496487 3.697112-8.193599 8.193599-8.193599h162.473068c4.496487 0 8.193599 3.697112 8.193599 8.193599v27.278689c0.099922 4.496487-3.59719 8.193599-8.093677 8.193598z" fill="#CCCCCC" p-id="2839"></path><path d="M670.875878 675.472287m-174.863388 0a174.863388 174.863388 0 1 0 349.726776 0 174.863388 174.863388 0 1 0-349.726776 0Z" fill="#DDDDDD" p-id="2840"></path><path d="M899.497268 672.574551c0-125.202186-101.520687-226.722873-226.822795-226.722873C547.572209 445.751756 446.051522 547.272443 446.051522 672.574551 446.051522 797.776737 547.572209 899.297424 672.774395 899.297424c125.302108 0 226.722873-101.520687 226.722873-226.722873zM672.774395 842.641686c-93.92662 0-169.967213-76.140515-169.967213-170.067135 0-93.92662 76.140515-170.067135 169.967213-170.067135 94.026542 0 170.067135 76.140515 170.067135 170.067135 0 93.92662-76.140515 170.067135-170.067135 170.067135z m0 0" fill="#B9B9B9" p-id="2841"></path><path d="M567.256831 684.36534h31.175644c0-51.559719 41.967213-93.526932 93.42701-93.526933v-31.175644c-68.64637 0-124.602654 55.956284-124.602654 124.702577z m0 0M1004.115535 936.168618L880.711944 812.765027c-17.786105 29.576893-42.566745 54.357533-72.24356 72.043716l123.503513 123.503513c19.984387 19.884465 52.259173 19.884465 72.143638 0 19.984387-19.884465 19.984387-52.259173 0-72.143638z m0 0" fill="#B9B9B9" p-id="2842"></path></svg>