<?xml version="1.0" standalone="no"?><!DOCTYPE svg PUBLIC "-//W3C//DTD SVG 1.1//EN" "http://www.w3.org/Graphics/SVG/1.1/DTD/svg11.dtd"><svg t="1517686148787" class="icon" style="" viewBox="0 0 1024 1024" version="1.1" xmlns="http://www.w3.org/2000/svg" p-id="6134" xmlns:xlink="http://www.w3.org/1999/xlink" width="200" height="200"><defs><style type="text/css"></style></defs><path d="M382.949 235.41h191.243v531.745H382.949z" fill="#D53C3A" p-id="6135"></path><path d="M433.797 285.258h89.537v245.106h-89.537z" fill="#FFFFFF" p-id="6136"></path><path d="M527.393 659.145c0 27.531-21.856 49.852-48.831 49.852-26.959 0-48.823-22.32-48.823-49.852s21.864-49.852 48.823-49.852c26.975 0 48.831 22.32 48.831 49.852z" fill="#CCCCCC" p-id="6137"></path><path d="M515.193 659.145c0 20.65-16.398 37.393-36.631 37.393-20.226 0-36.623-16.742-36.623-37.393 0-20.646 16.397-37.385 36.623-37.385 20.233 0 36.631 16.738 36.631 37.385z" fill="#888888" p-id="6138"></path><path d="M242.223 760.92L57.761 709.337l137.641-512.851 184.454 51.588z" fill="#73B3DA" p-id="6139"></path><path d="M254.462 518.833L168.11 494.68l63.444-236.393 86.343 24.149z" fill="#FFFFFF" p-id="6140"></path><path d="M225.036 644.131c-7.121 26.557-33.987 42.189-59.995 34.906-26.016-7.268-41.308-34.701-34.195-61.247 7.128-26.554 33.987-42.19 60.002-34.915 26.016 7.279 41.324 34.707 34.188 61.256z" fill="#CCCCCC" p-id="6141"></path><path d="M213.277 640.834c-5.357 19.923-25.506 31.64-45.012 26.189-19.506-5.459-30.987-26.031-25.652-45.947 5.357-19.912 25.498-31.633 45.012-26.179 19.513 5.458 30.987 26.029 25.652 45.937z" fill="#888888" p-id="6142"></path><path d="M576.232 235.41H767.49v531.745H576.232z" fill="#E6B255" p-id="6143"></path><path d="M627.104 285.258h89.529v245.106h-89.529z" fill="#FFFFFF" p-id="6144"></path><path d="M720.699 659.145c0 27.531-21.863 49.852-48.838 49.852s-48.824-22.32-48.824-49.852 21.85-49.852 48.824-49.852 48.838 22.32 48.838 49.852z" fill="#CCCCCC" p-id="6145"></path><path d="M708.484 659.145c0 20.65-16.391 37.393-36.623 37.393-20.219 0-36.631-16.742-36.631-37.393 0-20.646 16.412-37.385 36.631-37.385 20.233 0 36.623 16.738 36.623 37.385z" fill="#888888" p-id="6146"></path><path d="M774.479 235.41h191.258v531.745H774.479z" fill="#2A8AA0" p-id="6147"></path><path d="M825.344 285.258h89.527v245.106h-89.527z" fill="#FFFFFF" p-id="6148"></path><path d="M918.945 659.145c0 27.531-21.863 49.852-48.846 49.852-26.967 0-48.824-22.32-48.824-49.852s21.857-49.852 48.824-49.852c26.983 0 48.846 22.32 48.846 49.852z" fill="#CCCCCC" p-id="6149"></path><path d="M906.73 659.145c0 20.65-16.398 37.393-36.631 37.393-20.217 0-36.623-16.742-36.623-37.393 0-20.646 16.406-37.385 36.623-37.385 20.233 0 36.631 16.738 36.631 37.385z" fill="#4E4D4D" p-id="6150"></path><path d="M774.98 235.41h191.258v531.745H774.98z" fill="#38AAAA" p-id="6151"></path><path d="M825.846 285.258h89.537v245.106h-89.537z" fill="#FFFFFF" p-id="6152"></path><path d="M919.449 659.145c0 27.531-21.865 49.852-48.84 49.852s-48.83-22.32-48.83-49.852 21.855-49.852 48.83-49.852 48.84 22.32 48.84 49.852z" fill="#CCCCCC" p-id="6153"></path><path d="M907.232 659.145c0 20.65-16.396 37.393-36.623 37.393-20.217 0-36.631-16.742-36.631-37.393 0-20.646 16.414-37.385 36.631-37.385 20.227 0 36.623 16.738 36.623 37.385z" fill="#888888" p-id="6154"></path><path d="M29.302 767.55h965.395v59.964H29.302z" fill="#CCCCCC" p-id="6155"></path></svg>